<svg width="819" height="180" viewBox="0 0 819 180" fill="none" xmlns="http://www.w3.org/2000/svg">
<g clip-path="url(#clip0_5862_90339)">
<path fill-rule="evenodd" clip-rule="evenodd" d="M558.962 26.46C556.082 29.34 552.362 30.78 547.802 30.78C543.242 30.78 539.522 29.34 536.642 26.46C533.762 23.58 532.322 19.92 532.322 15.48C532.322 11.04 533.762 7.37999 536.642 4.5C539.522 1.5 543.242 0 547.802 0C552.362 0 556.082 1.5 558.962 4.5C561.842 7.37999 563.282 11.04 563.282 15.48C563.282 19.92 561.842 23.58 558.962 26.46ZM535.022 137.34V43.02H560.582V137.34H535.022ZM645.265 43.0201V54.5401C639.025 45.4201 629.185 40.8601 615.745 40.8601C602.905 40.8601 592.525 45.4201 584.605 54.5401C576.685 63.5401 572.725 74.7601 572.725 88.2001C572.725 101.64 576.685 112.92 584.605 122.04C592.525 131.04 602.905 135.54 615.745 135.54C627.985 135.54 637.165 131.46 643.285 123.3V136.44C643.285 142.2 641.605 146.7 638.245 149.94C634.885 153.18 630.025 154.8 623.665 154.8C613.225 154.8 607.165 150.66 605.485 142.38H579.925C580.765 151.14 584.845 159.06 592.165 166.14C599.605 173.22 609.985 176.76 623.305 176.76C637.345 176.76 648.445 172.74 656.605 164.7C664.765 156.66 668.845 146.34 668.845 133.74V43.0201H645.265ZM644.005 88.2001C644.005 95.6401 641.905 101.64 637.705 106.2C633.505 110.76 627.985 113.04 621.145 113.04C614.305 113.04 608.785 110.76 604.585 106.2C600.385 101.64 598.285 95.6401 598.285 88.2001C598.285 80.7601 600.385 74.7601 604.585 70.2001C608.785 65.6401 614.305 63.3601 621.145 63.3601C627.985 63.3601 633.505 65.6401 637.705 70.2001C641.905 74.7601 644.005 80.7601 644.005 88.2001ZM709.521 43.0201V54.5401C714.441 45.4201 723.801 40.8601 737.601 40.8601C748.761 40.8601 757.341 44.2801 763.341 51.1201C769.341 57.8401 772.341 66.9601 772.341 78.4801V137.34H746.781V81.3601C746.781 69.0001 741.441 62.8201 730.761 62.8201C724.641 62.8201 719.901 64.6801 716.541 68.4001C713.181 72.0001 711.501 76.9801 711.501 83.3401V137.34H685.941V43.0201H709.521ZM813.645 134.1C810.405 137.22 806.265 138.78 801.225 138.78C796.185 138.78 792.045 137.22 788.805 134.1C785.565 130.86 783.945 126.72 783.945 121.68C783.945 116.76 785.565 112.68 788.805 109.44C792.045 106.08 796.185 104.4 801.225 104.4C806.145 104.4 810.225 106.08 813.465 109.44C816.825 112.68 818.505 116.76 818.505 121.68C818.505 126.72 816.885 130.86 813.645 134.1ZM442.866 106.74C444.426 128.58 458.046 139.5 483.726 139.5C496.086 139.5 505.806 136.68 512.886 131.04C520.086 125.28 523.686 118.02 523.686 109.26C523.686 102.06 521.886 96.3001 518.286 91.9801C514.686 87.6601 510.306 84.7801 505.146 83.3401C500.106 81.9001 495.006 80.8201 489.846 80.1001C484.806 79.2601 480.486 78.1801 476.886 76.8601C473.286 75.5401 471.486 73.4401 471.486 70.5601C471.486 67.9201 472.626 65.7601 474.906 64.0801C477.186 62.2801 480.366 61.3801 484.446 61.3801C488.766 61.3801 492.126 62.4601 494.526 64.6201C497.046 66.7801 498.426 69.4801 498.666 72.7201H523.326C522.846 64.4401 519.486 57.0601 513.246 50.5801C507.006 44.1001 497.466 40.8601 484.626 40.8601C473.346 40.8601 464.226 43.8601 457.266 49.8601C450.306 55.8601 446.826 63.2401 446.826 72.0001C446.826 78.9601 448.626 84.5401 452.226 88.7401C455.826 92.9401 460.206 95.7601 465.366 97.2001C470.526 98.6401 475.626 99.7801 480.666 100.62C485.826 101.46 490.206 102.6 493.806 104.04C497.406 105.36 499.206 107.46 499.206 110.34C499.206 112.98 497.946 115.08 495.426 116.64C492.906 118.2 489.246 118.98 484.446 118.98C479.406 118.98 475.566 117.84 472.926 115.56C470.406 113.16 469.026 110.22 468.786 106.74H442.866ZM438.017 97.5601H369.617C370.457 104.04 372.857 109.02 376.817 112.5C380.777 115.86 385.997 117.54 392.477 117.54C396.557 117.54 400.217 116.7 403.457 115.02C406.817 113.22 409.217 110.64 410.657 107.28H436.397C433.637 116.88 428.177 124.68 420.017 130.68C411.977 136.56 402.557 139.5 391.757 139.5C377.837 139.5 366.437 134.88 357.557 125.64C348.677 116.4 344.237 104.52 344.237 90.0001C344.237 75.9601 348.677 64.2601 357.557 54.9001C366.437 45.5401 377.777 40.8601 391.577 40.8601C405.377 40.8601 416.597 45.5401 425.237 54.9001C433.997 64.1401 438.377 75.8401 438.377 90.0001L438.017 97.5601ZM391.397 61.3801C385.637 61.3801 380.897 63.0001 377.177 66.2401C373.457 69.3601 371.057 73.6801 369.977 79.2001H412.817C411.857 73.8001 409.517 69.4801 405.797 66.2401C402.077 63.0001 397.277 61.3801 391.397 61.3801ZM306.659 2.34009V53.1001C304.019 49.6201 300.239 46.7401 295.319 44.4601C290.519 42.0601 284.999 40.8601 278.759 40.8601C265.439 40.8601 254.879 45.5401 247.079 54.9001C239.279 64.2601 235.379 76.0201 235.379 90.1801C235.379 104.34 239.279 116.1 247.079 125.46C254.879 134.82 265.439 139.5 278.759 139.5C292.439 139.5 302.399 134.94 308.639 125.82V137.34H332.219V2.34009H306.659ZM307.379 90.1801C307.379 97.9801 305.219 104.4 300.899 109.44C296.699 114.48 291.119 117 284.159 117C277.199 117 271.559 114.48 267.239 109.44C263.039 104.4 260.939 97.9801 260.939 90.1801C260.939 82.3801 263.039 75.9601 267.239 70.9201C271.559 65.8801 277.199 63.3601 284.159 63.3601C291.119 63.3601 296.699 65.8801 300.899 70.9201C305.219 75.9601 307.379 82.3801 307.379 90.1801ZM115.765 174.78L131.605 135.72L94.3453 43.02H121.525L144.205 106.02L167.065 43.02H193.705L140.965 174.78H115.765ZM36.72 44.4601C31.92 46.7401 28.2 49.6201 25.56 53.1001V2.34009H0V137.34H23.58V125.82C29.82 134.94 39.78 139.5 53.46 139.5C66.78 139.5 77.34 134.82 85.14 125.46C92.94 116.1 96.84 104.34 96.84 90.1801C96.84 76.0201 92.94 64.2601 85.14 54.9001C77.34 45.5401 66.78 40.8601 53.46 40.8601C47.22 40.8601 41.64 42.0601 36.72 44.4601ZM24.84 90.1801C24.84 82.3801 26.94 75.9601 31.14 70.9201C35.46 65.8801 41.1 63.3601 48.06 63.3601C55.02 63.3601 60.6 65.8801 64.8 70.9201C69.12 75.9601 71.28 82.3801 71.28 90.1801C71.28 97.9801 69.12 104.4 64.8 109.44C60.6 114.48 55.02 117 48.06 117C41.1 117 35.46 114.48 31.14 109.44C26.94 104.4 24.84 97.9801 24.84 90.1801Z" fill="#A8A9B2"/>
</g>
<defs>
<clipPath id="clip0_5862_90339">
<rect width="818.505" height="180" fill="white"/>
</clipPath>
</defs>
</svg>
