<svg width="609" height="180" viewBox="0 0 609 180" fill="none" xmlns="http://www.w3.org/2000/svg">
<g clip-path="url(#clip0_5862_90328)">
<path fill-rule="evenodd" clip-rule="evenodd" d="M491.131 30.78C495.691 30.78 499.411 29.34 502.291 26.46C505.171 23.58 506.611 19.92 506.611 15.48C506.611 11.04 505.171 7.37999 502.291 4.5C499.411 1.5 495.691 0 491.131 0C486.571 0 482.851 1.5 479.971 4.5C477.091 7.37999 475.651 11.04 475.651 15.48C475.651 19.92 477.091 23.58 479.971 26.46C482.851 29.34 486.571 30.78 491.131 30.78ZM478.351 43.02V137.34H503.911V43.02H478.351ZM516.054 90.1801C516.054 104.22 520.494 115.98 529.374 125.46C538.374 134.82 549.714 139.5 563.394 139.5C576.834 139.5 587.394 135.72 595.074 128.16C602.874 120.6 607.314 112.14 608.394 102.78H582.114C581.154 106.86 578.934 110.22 575.454 112.86C571.974 115.5 567.894 116.82 563.214 116.82C556.494 116.82 551.214 114.42 547.374 109.62C543.534 104.7 541.614 98.2201 541.614 90.1801C541.614 82.1401 543.534 75.7201 547.374 70.9201C551.214 66.0001 556.494 63.5401 563.214 63.5401C567.894 63.5401 571.974 64.8601 575.454 67.5001C578.934 70.1401 581.154 73.5001 582.114 77.5801H608.394C607.314 68.2201 602.874 59.7601 595.074 52.2001C587.394 44.6401 576.834 40.8601 563.394 40.8601C549.714 40.8601 538.374 45.6001 529.374 55.0801C520.494 64.4401 516.054 76.1401 516.054 90.1801ZM456.477 63.1799V137.34H430.917V63.1799H418.137V43.0199H430.917V19.6199H456.477V43.0199H470.337V63.1799H456.477ZM347.048 97.5601H415.448L415.808 90.0001C415.808 75.8401 411.428 64.1401 402.668 54.9001C394.028 45.5401 382.808 40.8601 369.008 40.8601C355.208 40.8601 343.868 45.5401 334.988 54.9001C326.108 64.2601 321.668 75.9601 321.668 90.0001C321.668 104.52 326.108 116.4 334.988 125.64C343.868 134.88 355.268 139.5 369.188 139.5C379.988 139.5 389.408 136.56 397.448 130.68C405.608 124.68 411.068 116.88 413.828 107.28H388.088C386.648 110.64 384.248 113.22 380.888 115.02C377.648 116.7 373.988 117.54 369.908 117.54C363.428 117.54 358.208 115.86 354.248 112.5C350.288 109.02 347.888 104.04 347.048 97.5601ZM354.608 66.2401C358.328 63.0001 363.068 61.3801 368.828 61.3801C374.708 61.3801 379.508 63.0001 383.228 66.2401C386.948 69.4801 389.288 73.8001 390.248 79.2001H347.408C348.488 73.6801 350.888 69.3601 354.608 66.2401ZM309.525 137.34H283.965V2.34009H309.525V137.34ZM205.941 51.6601V2.34009H180.381V137.34H205.941V83.5201C205.941 77.0401 207.621 72.0001 210.981 68.4001C214.341 64.6801 219.081 62.8201 225.201 62.8201C235.881 62.8201 241.221 69.0001 241.221 81.3601V137.34H266.781V78.4801C266.781 66.9601 263.781 57.8401 257.781 51.1201C251.781 44.2801 243.201 40.8601 232.041 40.8601C220.041 40.8601 211.341 44.4601 205.941 51.6601ZM158.507 63.1799V137.34H132.947V63.1799H120.167V43.0199H132.947V19.6199H158.507V43.0199H172.367V63.1799H158.507ZM0 137.34H27.54L35.28 115.38H87.84L95.58 137.34H123.84L75.78 9.54004H48.06L0 137.34ZM61.38 41.94H61.74L79.38 91.8H43.74L61.38 41.94Z" fill="#E6E6E6"/>
</g>
<defs>
<clipPath id="clip0_5862_90328">
<rect width="608.394" height="180" fill="white"/>
</clipPath>
</defs>
</svg>
